# xmcd
#
# Track frame offsets:
# 150
# 16404
# 30320
# 48307
# 60852
# 75206
# 93362
# 107700
# 123062
# 138916
# 155942
# 169052
# 183132
#
# Disc length: 2665 seconds
#
#
# Revision: 0
# Processed by: cddbd v1.5.2PL0 Copyright (c) Steve Scherf et al.
# Submitted via: FreeRIP 2.96 
#
DISCID=8e0a670d
DTITLE=Batidão Sertanejo - CD 2 - Batidão Sertanejo - CD 2
DYEAR=2009
DGENRE=Sertanejo
TTITLE0=Coisas Esotéricas (Ao Vivo) Maria Cecília and Rodolfo
TTITLE1=Mistérios (Ao Vivo) Jorge and Mateus
TTITLE2=O Amor De Antes - Hugo and Thiago
TTITLE3=Doida (Ao Vivo) João Paulo and Eduardo
TTITLE4=Filme De Amor (Ao Vivo) João Neto and Frederico
TTITLE5=A Carta - Eduardo Costa
TTITLE6=Virou Rotina (Ao Vivo) Hugo and Tiago
TTITLE7=Flecha Do Cupido (Ao Vivo) Marco and Mário
TTITLE8=Menininha - Tchê Garotos
TTITLE9=Minta, Finja (Ao Vivo) Pedro Paulo and Matheus
TTITLE10=Perdoa, Amor (Ao Vivo) Marcos and Belutti
TTITLE11=Apaixonado, Adolescente (Ao Vivo) Roger and Robson
TTITLE12=Só De Você (Ao Vivo) Guilherme and Santiago
EXTD=Ano 2009 - M.P.A.
EXTT0=
EXTT1=
EXTT2=
EXTT3=
EXTT4=
EXTT5=
EXTT6=
EXTT7=
EXTT8=
EXTT9=
EXTT10=
EXTT11=
EXTT12=
PLAYORDER=
